<!DOCTYPE svg PUBLIC "-//W3C//DTD SVG 1.1//EN" "http://www.w3.org/Graphics/SVG/1.1/DTD/svg11.dtd">

<!-- Uploaded to: SVG Repo, www.svgrepo.com, Transformed by: SVG Repo Mixer Tools -->
<svg height="14px" width="14px" version="1.1" id="Capa_1" xmlns="http://www.w3.org/2000/svg" xmlns:xlink="http://www.w3.org/1999/xlink" viewBox="0 0 34.499 34.499" xml:space="preserve" fill="#fff" stroke="#fff">

<g id="SVGRepo_bgCarrier" stroke-width="0"/>

<g id="SVGRepo_tracerCarrier" stroke-linecap="round" stroke-linejoin="round"/>

<g id="SVGRepo_iconCarrier"> <g> <g> <path style="fill:#fff;" d="M25.8,6.84H8.699c-0.983,0-1.784,0.8-1.784,1.784v24.091c0,0.984,0.801,1.784,1.784,1.784h17.102 c0.982,0,1.783-0.8,1.783-1.784V8.624C27.585,7.64,26.784,6.84,25.8,6.84z M13.012,31.524c0,0.328-0.267,0.595-0.595,0.595H9.889 c-0.327,0-0.594-0.267-0.594-0.595V9.813c0-0.327,0.267-0.595,0.594-0.595h2.528c0.328,0,0.595,0.268,0.595,0.595V31.524z M19.108,31.524c0,0.328-0.268,0.595-0.595,0.595h-2.527c-0.328,0-0.595-0.267-0.595-0.595V9.813c0-0.327,0.267-0.595,0.595-0.595 h2.527c0.328,0,0.595,0.268,0.595,0.595V31.524z M25.205,31.524c0,0.328-0.267,0.595-0.594,0.595h-2.528 c-0.328,0-0.595-0.267-0.595-0.595V9.813c0-0.327,0.267-0.595,0.595-0.595h2.528c0.327,0,0.594,0.268,0.594,0.595V31.524z"/> <path style="fill:#fff;" d="M8.253,5.501h17.696c0.657,0,1.188-0.532,1.188-1.189s-0.531-1.189-1.188-1.189H21.29V1.189 C21.29,0.533,20.757,0,20.101,0h-6.047c-0.656,0-1.189,0.533-1.189,1.189v1.934h-4.61c-0.655,0-1.189,0.532-1.189,1.189 C7.063,4.969,7.597,5.501,8.253,5.501z M15.242,2.379h3.668v0.743h-3.668C15.242,3.122,15.242,2.379,15.242,2.379z"/> </g> </g> </g>

</svg>