<?xml version="1.0" encoding="iso-8859-1"?>
<!-- Uploaded to: SVG Repo, www.svgrepo.com, Generator: SVG Repo Mixer Tools -->
<svg height="800px" width="800px" version="1.1" id="Capa_1" xmlns="http://www.w3.org/2000/svg" xmlns:xlink="http://www.w3.org/1999/xlink" 
	 viewBox="0 0 355.029 355.029" xml:space="preserve">
<g>
	<g>
		<polygon style="fill:#010002;" points="192.276,8.437 192.276,77.724 261.564,77.724 		"/>
		<path style="fill:#010002;" d="M270.001,89.658H186.31c-3.3,0-5.967-2.673-5.967-5.967V0H85.028v167.072h184.973V89.658z"/>
		<path style="fill:#010002;" d="M275.968,179.006H79.061H34.31v143.205h286.41V179.006H275.968z M257.578,241.431
			c-6.044,0-10.943-4.893-10.943-10.937c0-6.038,4.899-10.937,10.943-10.937c6.038,0,10.931,4.899,10.931,10.937
			C268.509,236.539,263.616,241.431,257.578,241.431z M294.37,241.431c-6.044,0-10.943-4.893-10.943-10.937
			c0-6.038,4.899-10.937,10.943-10.937c6.038,0,10.931,4.899,10.931,10.937C305.301,236.539,300.408,241.431,294.37,241.431z"/>
		<path style="fill:#010002;" d="M275.968,343.095H79.061c-3.294,0-5.967,2.667-5.967,5.967c0,3.3,2.673,5.967,5.967,5.967h196.907
			c3.3,0,5.967-2.667,5.967-5.967C281.935,345.762,279.267,343.095,275.968,343.095z"/>
	</g>
</g>
</svg>