<?xml version="1.0" standalone="no"?>
<!DOCTYPE svg PUBLIC "-//W3C//DTD SVG 20010904//EN"
 "http://www.w3.org/TR/2001/REC-SVG-20010904/DTD/svg10.dtd">
<svg version="1.0" xmlns="http://www.w3.org/2000/svg"
 width="300.000000pt" height="128.000000pt" viewBox="0 0 300.000000 128.000000"
 preserveAspectRatio="xMidYMid meet">

<g transform="translate(0.000000,128.000000) scale(0.100000,-0.100000)"
fill="#000000" stroke="none">
<path d="M623 1245 c-44 -37 -117 -169 -129 -231 l-6 -31 87 -7 c48 -4 89 -5
91 -3 3 2 3 73 2 156 l-3 152 -42 -36z"/>
<path d="M730 1119 l0 -152 61 7 c34 3 75 6 91 6 28 0 29 2 23 33 -17 90 -125
257 -165 257 -6 0 -10 -61 -10 -151z"/>
<path d="M493 1241 c-83 -30 -153 -72 -215 -130 -32 -29 -58 -57 -58 -61 0 -8
89 -35 163 -49 l47 -8 11 41 c13 49 59 148 89 194 12 17 20 32 18 32 -1 -1
-26 -9 -55 -19z"/>
<path d="M890 1193 c21 -35 48 -95 60 -132 l22 -68 46 9 c74 13 162 40 162 48
0 10 -80 87 -117 112 -45 31 -135 75 -174 86 l-36 10 37 -65z"/>
<path d="M1899 1145 c-18 -25 -38 -45 -45 -45 -7 0 -22 16 -34 35 -12 19 -26
35 -31 35 -5 0 -39 -12 -75 -26 l-66 -27 -30 32 c-47 51 -99 37 -137 -36 -8
-15 -11 -170 -11 -517 l0 -496 130 0 130 0 0 205 0 206 58 -3 57 -3 3 -202 2
-203 106 0 c97 0 107 2 128 23 23 24 24 27 19 178 -5 170 -20 243 -57 278
l-24 23 49 47 49 47 0 96 c0 62 -7 127 -20 183 -27 109 -28 113 -51 120 -10 4
-33 26 -49 51 -39 56 -60 56 -101 -1z m-276 -34 c28 -25 29 -25 58 -8 97 57
88 55 112 25 12 -15 30 -37 39 -50 l18 -23 22 28 c13 15 32 39 44 53 26 34 50
27 86 -26 15 -22 34 -40 42 -40 17 0 21 -12 40 -93 8 -39 11 -80 6 -112 -7
-53 -7 -53 -40 37 -31 84 -63 99 -89 40 l-12 -26 -22 39 c-12 21 -30 43 -40
49 -22 14 -30 2 -54 -71 -9 -29 -19 -53 -22 -53 -3 1 -26 29 -51 63 -25 34
-53 63 -64 65 -21 4 -63 -33 -103 -91 l-28 -40 -7 48 c-4 30 -19 66 -38 93
-36 51 -35 78 5 118 28 28 47 23 98 -25z m173 -256 c33 -26 34 -26 51 -6 24
29 33 17 33 -45 0 -63 -12 -73 -67 -56 -24 7 -42 8 -55 1 -17 -9 -18 -5 -18
61 0 79 6 83 56 45z"/>
<path d="M1600 1049 c0 -5 5 -7 10 -4 6 3 10 8 10 11 0 2 -4 4 -10 4 -5 0 -10
-5 -10 -11z"/>
<path d="M2403 1170 c-24 -10 -43 -25 -43 -33 0 -8 -25 -30 -55 -48 -44 -27
-57 -41 -65 -69 -17 -66 -32 -344 -29 -521 l4 -176 35 -69 c44 -86 88 -118
190 -140 91 -19 227 -14 285 10 100 42 137 112 143 274 l5 112 -120 0 -119 0
-12 -33 c-7 -18 -12 -49 -12 -69 0 -39 -28 -72 -56 -66 -9 1 -26 16 -38 31
-20 27 -21 43 -24 269 -3 218 -2 242 14 259 23 26 52 21 77 -13 16 -22 22 -48
25 -118 l4 -90 123 0 122 0 -1 165 c-1 137 -4 167 -18 181 -11 11 -23 14 -39
9 l-24 -8 23 -8 c35 -13 45 -53 35 -154 l-8 -90 -27 58 c-26 55 -40 68 -53 47
-3 -5 -14 -10 -24 -10 -19 0 -38 33 -61 102 -15 49 -22 52 -51 22 l-24 -26
-32 39 -32 38 -24 -23 c-13 -12 -35 -22 -49 -22 -33 0 -44 -14 -58 -73 -14
-53 -30 -71 -30 -33 0 31 -17 43 -35 25 -13 -13 -24 -50 -41 -134 l-6 -30 -19
24 c-24 29 -25 112 -4 196 17 65 38 95 66 95 10 0 31 19 48 44 46 67 81 73
151 26 48 -32 69 -37 87 -19 15 15 41 0 85 -49 30 -33 37 -50 43 -102 8 -68
21 -69 27 -1 3 34 -1 49 -17 67 -11 12 -37 43 -58 68 -37 44 -41 46 -86 45
-28 -1 -57 4 -72 14 -41 26 -80 28 -126 7z"/>
<path d="M2390 1090 c-8 -5 -12 -12 -9 -15 8 -8 39 5 39 16 0 11 -11 11 -30
-1z"/>
<path d="M2640 1050 c0 -5 7 -10 16 -10 8 0 12 5 9 10 -3 6 -10 10 -16 10 -5
0 -9 -4 -9 -10z"/>
<path d="M146 956 c-33 -57 -63 -143 -71 -201 -4 -28 -9 -58 -12 -67 -4 -17 8
-18 160 -18 l164 0 6 83 c4 45 9 105 13 133 l6 51 -39 6 c-22 4 -76 17 -121
30 l-82 24 -24 -41z"/>
<path d="M1188 985 c-21 -8 -74 -22 -119 -32 l-81 -18 6 -50 c3 -27 9 -87 12
-132 l7 -83 163 0 164 0 -6 48 c-8 64 -49 185 -80 238 -14 24 -27 44 -27 43
-1 0 -19 -7 -39 -14z"/>
<path d="M474 915 c-9 -26 -24 -145 -24 -192 l0 -53 110 0 110 0 0 120 c0 89
-3 120 -12 121 -7 0 -51 4 -97 8 -54 4 -85 3 -87 -4z"/>
<path d="M875 923 c-22 -2 -64 -6 -92 -9 l-53 -5 0 -120 0 -119 110 0 110 0 0
51 c0 59 -19 192 -28 199 -4 3 -25 4 -47 3z"/>
<path d="M66 563 c8 -64 49 -186 79 -238 l25 -42 82 24 c45 13 99 26 121 30
l39 6 -6 51 c-3 28 -9 88 -12 134 l-7 82 -163 0 -164 0 6 -47z"/>
<path d="M451 548 c1 -35 6 -92 13 -128 l11 -64 50 2 c28 1 71 5 98 8 l47 6 0
119 0 119 -110 0 -110 0 1 -62z"/>
<path d="M730 491 l0 -119 48 -6 c26 -3 70 -7 97 -8 l50 -2 11 64 c7 36 12 93
13 128 l1 62 -110 0 -110 0 0 -119z"/>
<path d="M1007 528 c-4 -46 -9 -105 -13 -133 l-6 -50 109 -26 c59 -15 114 -28
122 -30 29 -8 97 161 114 284 l6 37 -163 0 -163 0 -6 -82z"/>
<path d="M542 303 l-53 -4 6 -32 c13 -60 83 -194 120 -226 20 -17 40 -31 45
-31 6 0 10 60 10 150 l0 150 -37 -2 c-21 -1 -62 -3 -91 -5z"/>
<path d="M730 156 c0 -150 1 -156 19 -147 51 28 141 175 157 259 6 30 5 32
-23 32 -17 0 -58 3 -92 6 l-61 7 0 -157z"/>
<path d="M400 283 c-59 -10 -180 -46 -180 -53 0 -10 80 -87 117 -112 45 -31
135 -75 174 -86 l36 -10 -37 65 c-21 35 -48 95 -60 133 -12 39 -23 69 -24 69
0 -1 -12 -4 -26 -6z"/>
<path d="M959 246 c-13 -49 -59 -148 -89 -193 l-21 -31 23 5 c65 15 192 87
251 142 34 33 59 62 55 66 -7 7 -96 32 -163 44 l-45 8 -11 -41z"/>
</g>
</svg>
