<?xml version="1.0" encoding="iso-8859-1"?>
<!-- Uploaded to: SVG Repo, www.svgrepo.com, Generator: SVG Repo Mixer Tools -->
<svg fill="#000000" version="1.1" id="Layer_1" xmlns="http://www.w3.org/2000/svg" xmlns:xlink="http://www.w3.org/1999/xlink" 
	 viewBox="0 0 512 512" xml:space="preserve">
<g>
	<g>
		<rect x="102.4" y="6.4" width="307.2" height="64"/>
	</g>
</g>
<g>
	<g>
		<path d="M492.8,108.8H19.2C8.596,108.8,0,117.396,0,128v230.4c0,10.604,8.596,19.2,19.2,19.2H64v-128h384v128h44.8
			c10.604,0,19.2-8.596,19.2-19.2V128C512,117.396,503.404,108.8,492.8,108.8z M89.6,204.8c-14.116,0-25.6-11.484-25.6-25.6
			s11.484-25.6,25.6-25.6c14.117,0,25.6,11.484,25.6,25.6C115.195,193.318,103.711,204.8,89.6,204.8z M166.4,204.8
			c-14.116,0-25.6-11.484-25.6-25.6s11.484-25.6,25.6-25.6c14.117,0,25.6,11.484,25.6,25.6
			C191.995,193.318,180.511,204.8,166.4,204.8z"/>
	</g>
</g>
<g>
	<g>
		<path d="M102.4,288v217.6h307.2V288H102.4z M332.8,454.4H153.6V416h179.2V454.4z M358.4,377.6H153.6v-38.4h204.8V377.6z"/>
	</g>
</g>
</svg>